<svg width="279" height="66" viewBox="0 0 279 66" fill="none" xmlns="http://www.w3.org/2000/svg">
<path d="M50.438 4.624C49.8407 6.45867 48.6887 7.86667 46.982 8.848C45.2753 9.82933 43.142 10.32 40.582 10.32C38.534 10.32 36.4007 10.1493 34.182 9.808C31.9633 9.424 29.7447 8.95466 27.526 8.4C26.9713 9.85066 26.566 11.4507 26.31 13.2C26.0967 14.9067 25.8193 16.7627 25.478 18.768C25.0087 21.584 24.39 24.4427 23.622 27.344C22.854 30.2453 21.83 32.8907 20.55 35.28C19.27 37.6693 17.606 39.4827 15.558 40.72C14.662 41.232 13.8087 41.7653 12.998 42.32C12.23 42.8747 11.3553 43.344 10.374 43.728C9.43533 44.112 8.21933 44.304 6.726 44.304C4.806 44.304 3.35533 43.9413 2.374 43.216C1.43533 42.5333 0.795333 41.552 0.454 40.272C0.155333 38.992 0.00600001 37.4773 0.00600001 35.728C0.00600001 35.4293 0.07 34.8747 0.198 34.064C0.368667 33.2533 0.539333 32.4427 0.71 31.632C0.923333 30.8213 1.11533 30.2667 1.286 29.968C1.58467 29.2853 2.09667 28.432 2.822 27.408C3.59 26.384 4.46467 25.36 5.446 24.336C6.42733 23.312 7.43 22.4587 8.454 21.776C9.478 21.0933 10.4167 20.752 11.27 20.752C11.6113 20.752 11.9953 21.0293 12.422 21.584C12.8913 22.096 13.2967 22.6933 13.638 23.376C13.9793 24.0587 14.15 24.6347 14.15 25.104C14.15 25.2747 14.0647 25.68 13.894 26.32C13.766 26.9173 13.4887 27.6 13.062 28.368C12.6353 29.0933 11.9953 29.7333 11.142 30.288C10.9713 30.3307 10.8007 30.352 10.63 30.352C10.502 30.352 10.3527 30.352 10.182 30.352C8.98733 30.352 8.39 30.1173 8.39 29.648C8.39 29.264 8.774 28.9227 9.542 28.624C10.31 28.2827 10.886 28.0907 11.27 28.048C11.6967 28.0053 11.974 27.8347 12.102 27.536C12.23 27.1947 12.294 26.4693 12.294 25.36C12.294 25.1467 12.23 24.8267 12.102 24.4C12.0167 23.9733 11.8887 23.568 11.718 23.184C11.59 22.8 11.4407 22.608 11.27 22.608C10.5447 22.608 9.81933 22.928 9.094 23.568C8.41133 24.208 7.77133 24.9973 7.174 25.936C6.57667 26.8747 6.04333 27.8133 5.574 28.752C5.10467 29.648 4.76333 30.3947 4.55 30.992C4.46467 31.248 4.31533 31.6747 4.102 32.272C3.88867 32.8267 3.69667 33.4027 3.526 34C3.35533 34.5547 3.27 34.9813 3.27 35.28C3.27 35.8347 3.24867 36.4107 3.206 37.008C3.206 37.5627 3.206 38.0747 3.206 38.544C3.206 39.696 3.398 40.6347 3.782 41.36C4.20867 42.0853 5.19 42.448 6.726 42.448C8.04867 42.448 9.13667 42.2133 9.99 41.744C10.886 41.232 11.654 40.6347 12.294 39.952C12.9767 39.2267 13.638 38.5227 14.278 37.84C16.8807 35.1947 18.9073 32.2933 20.358 29.136C21.8513 25.936 22.918 22.3733 23.558 18.448C23.8993 16.3573 24.262 14.48 24.646 12.816C25.0727 11.1093 25.6273 9.53067 26.31 8.08C24.134 7.48266 22.0433 6.88533 20.038 6.288C18.0753 5.648 16.2833 5.09333 14.662 4.624C13.766 4.32533 12.998 4.048 12.358 3.792C11.7607 3.49333 10.822 3.344 9.542 3.344C8.60333 3.344 7.66467 3.472 6.726 3.728C5.83 3.94133 5.382 4.496 5.382 5.392C5.382 5.648 5.36067 5.94666 5.318 6.288C5.318 6.62933 5.318 6.97066 5.318 7.312C5.318 8.12267 5.42467 8.95467 5.638 9.808C5.85133 10.6187 6.29933 11.3227 6.982 11.92C7.66467 12.4747 8.73133 12.7947 10.182 12.88C10.7793 12.9227 11.2487 12.7947 11.59 12.496C11.974 12.1973 12.294 11.8987 12.55 11.6C12.7207 11.1733 13.0407 10.96 13.51 10.96C13.9367 10.96 14.15 11.2587 14.15 11.856C14.15 11.984 14.1287 12.112 14.086 12.24C14.086 12.368 14.0647 12.5173 14.022 12.688C13.5953 13.2 13.0833 13.6907 12.486 14.16C11.9313 14.5867 11.1633 14.8 10.182 14.8C9.45667 14.8 8.62467 14.672 7.686 14.416C6.79 14.1173 5.91533 13.6053 5.062 12.88C4.20867 12.112 3.526 11.0667 3.014 9.744C2.54467 8.37867 2.374 6.65067 2.502 4.56C2.58733 3.70667 2.90733 2.896 3.462 2.128C4.05933 1.36 4.78467 0.741332 5.638 0.271999C6.534 -0.240002 7.40867 -0.496002 8.262 -0.496002C8.94467 -0.496002 9.798 -0.389336 10.822 -0.176003C11.846 0.0373306 12.8913 0.293331 13.958 0.591999C15.0673 0.890664 16.07 1.18933 16.966 1.488C17.9047 1.78666 18.63 2.02133 19.142 2.192C20.5073 2.61866 21.894 3.152 23.302 3.792C24.71 4.38933 26.1607 4.98667 27.654 5.584C27.7393 5.456 27.8247 5.328 27.91 5.2C28.038 5.072 28.1447 4.92267 28.23 4.752C28.6993 4.112 29.1687 3.792 29.638 3.792C29.8513 3.792 29.958 3.89867 29.958 4.112C29.958 4.496 29.6593 5.008 29.062 5.648C29.0193 5.69066 28.9767 5.75467 28.934 5.84C28.8913 5.88267 28.8273 5.94667 28.742 6.032C30.7047 6.8 32.71 7.46133 34.758 8.016C36.806 8.57067 38.9393 8.848 41.158 8.848C45.254 8.848 47.814 7.41867 48.838 4.56C48.8807 3.45067 49.1153 2.896 49.542 2.896C49.7553 2.896 49.9473 3.06667 50.118 3.408C50.3313 3.74933 50.438 4.15466 50.438 4.624ZM48.644 37.008C48.772 36.88 48.9427 36.816 49.156 36.816C49.4547 36.816 49.604 36.9653 49.604 37.264C49.604 37.4347 49.4973 37.6907 49.284 38.032C49.1133 38.3733 48.7293 38.7787 48.132 39.248C47.5347 39.76 46.916 40.2293 46.276 40.656C45.6787 41.0827 44.8467 41.296 43.78 41.296C42.628 41.296 41.7107 41.0827 41.028 40.656C40.388 40.2293 39.9187 39.76 39.62 39.248C39.364 38.6933 39.1933 38.2667 39.108 37.968C38.596 38.352 38.0627 38.864 37.508 39.504C36.996 40.1013 36.2493 40.656 35.268 41.168C34.2867 41.6373 32.8787 41.872 31.044 41.872C30.02 41.872 29.0813 41.6373 28.228 41.168C27.4173 40.656 27.012 39.568 27.012 37.904C27.012 37.4347 27.0333 36.944 27.076 36.432C27.1613 35.8773 27.2893 35.28 27.46 34.64C27.972 32.6347 28.5693 31.056 29.252 29.904C29.9347 28.752 30.9587 27.8987 32.324 27.344C33.1773 27.0027 34.2227 26.6827 35.46 26.384C36.6973 26.0853 37.7853 25.8293 38.724 25.616C39.0227 25.5307 39.2787 25.2533 39.492 24.784C39.748 24.272 40.0253 23.8027 40.324 23.376C40.4947 23.1627 40.6867 22.992 40.9 22.864C41.1133 22.6933 41.348 22.608 41.604 22.608C41.8173 22.608 42.0947 22.7147 42.436 22.928C42.7347 23.1413 42.9267 23.5467 43.012 24.144C43.14 24.7413 43.204 25.296 43.204 25.808C43.1613 26.064 43.0547 26.384 42.884 26.768C42.756 27.1093 42.6493 27.4933 42.564 27.92C42.4787 28.4747 42.2653 29.264 41.924 30.288C41.5827 31.312 41.412 32.1653 41.412 32.848C41.412 33.4453 41.3693 34.192 41.284 35.088C41.1987 35.9413 41.1987 36.5387 41.284 36.88C41.7533 37.904 42.4147 38.5867 43.268 38.928C44.1213 39.2267 44.868 39.312 45.508 39.184C45.9773 39.0987 46.5107 38.8213 47.108 38.352C47.7053 37.8827 48.2173 37.4347 48.644 37.008ZM38.276 29.712C38.1907 29.3707 37.9773 29.008 37.636 28.624C37.3373 28.24 36.9533 28.048 36.484 28.048C36.3987 28.048 36.228 28.0907 35.972 28.176C35.2467 28.432 34.4787 28.9227 33.668 29.648C32.8573 30.3307 32.1533 31.2267 31.556 32.336C30.9587 33.4453 30.6173 34.7467 30.532 36.24C30.532 36.6667 30.66 37.2213 30.916 37.904C31.2147 38.5867 31.5987 39.1627 32.068 39.632C32.5373 40.1013 33.0067 40.2293 33.476 40.016C34.5 39.5893 35.3533 38.992 36.036 38.224C36.7613 37.4133 37.3587 36.432 37.828 35.28C38.0413 34.7253 38.1907 34.1493 38.276 33.552C38.404 32.912 38.468 32.3147 38.468 31.76C38.468 31.248 38.4467 30.8213 38.404 30.48C38.3613 30.096 38.3187 29.84 38.276 29.712ZM63.1695 38.544C63.3402 38.3733 63.5748 38.288 63.8735 38.288C64.1722 38.288 64.3215 38.416 64.3215 38.672C64.3215 38.9707 63.9802 39.44 63.2975 40.08C62.6148 40.72 61.8682 41.232 61.0575 41.616C60.2468 42 59.4788 42.2773 58.7535 42.448C58.4122 42.4907 57.9428 42.3627 57.3455 42.064C56.7908 41.808 56.4495 41.5307 56.3215 41.232C56.1508 40.848 56.0228 40.4213 55.9375 39.952C55.8522 39.44 55.8095 38.9067 55.8095 38.352C55.8095 37.0293 55.9588 35.664 56.2575 34.256C56.5562 32.848 56.8335 31.632 57.0895 30.608C56.5775 30.7787 56.0015 30.864 55.3615 30.864C54.7642 30.864 54.2308 30.9067 53.7615 30.992C53.4628 31.4187 53.2068 31.9093 52.9935 32.464C52.7802 32.976 52.4815 33.552 52.0975 34.192C51.4148 35.3013 50.6468 36.4107 49.7935 37.52C48.9828 38.5867 48.1508 39.4613 47.2975 40.144C46.4442 40.8267 45.6122 41.168 44.8015 41.168C44.2468 41.168 43.9695 41.0187 43.9695 40.72C43.9695 40.4213 44.3322 40.144 45.0575 39.888C46.0815 39.504 47.1268 38.6933 48.1935 37.456C49.2602 36.2187 50.2202 34.9387 51.0735 33.616C51.5002 32.976 51.7775 32.4 51.9055 31.888C52.0335 31.3333 52.0975 30.9067 52.0975 30.608C52.0975 30.608 51.9055 30.3947 51.5215 29.968C51.1802 29.4987 51.0095 29.0507 51.0095 28.624C51.0095 27.6853 51.3082 26.832 51.9055 26.064C52.5455 25.296 53.2068 25.0187 53.8895 25.232C54.3588 25.36 54.6575 25.5733 54.7855 25.872C54.9562 26.1707 55.0415 26.4907 55.0415 26.832C55.0415 27.216 54.9775 27.6213 54.8495 28.048C54.7215 28.432 54.5935 28.7733 54.4655 29.072C54.5935 29.2427 54.8708 29.328 55.2975 29.328C55.9375 29.328 56.6415 29.2 57.4095 28.944C57.9642 28.1333 58.4975 27.4933 59.0095 27.024C59.5215 26.5547 59.9908 26.3627 60.4175 26.448C60.7162 26.4907 60.9935 26.5973 61.2495 26.768C61.5055 26.9387 61.6335 27.2587 61.6335 27.728C61.6335 28.112 61.4415 28.688 61.0575 29.456C60.4175 30.608 59.8202 31.8667 59.2655 33.232C58.7108 34.5547 58.2842 35.7707 57.9855 36.88C57.6868 37.9467 57.5588 38.6933 57.6015 39.12C57.6868 39.6747 57.8362 40.0373 58.0495 40.208C58.3055 40.3787 58.5828 40.464 58.8815 40.464C59.0948 40.464 59.3082 40.4427 59.5215 40.4C59.7775 40.3147 60.0122 40.2507 60.2255 40.208C60.8655 39.9947 61.3988 39.76 61.8255 39.504C62.2522 39.248 62.7002 38.928 63.1695 38.544ZM53.6335 27.728C53.6335 27.344 53.5055 27.0667 53.2495 26.896C53.2068 26.8533 53.1428 26.832 53.0575 26.832C52.8442 26.832 52.6522 26.9813 52.4815 27.28C52.3108 27.536 52.2255 27.792 52.2255 28.048C52.2255 28.2613 52.2468 28.5173 52.2895 28.816C52.3748 29.072 52.5242 29.136 52.7375 29.008C52.9508 28.88 53.1428 28.7093 53.3135 28.496C53.5268 28.2827 53.6335 28.0267 53.6335 27.728ZM83.072 23.056C83.328 23.3547 83.456 23.8453 83.456 24.528C83.456 25.4667 83.2427 26.6613 82.816 28.112C82.432 29.5627 81.9627 31.12 81.408 32.784C80.896 34.448 80.4267 36.112 80 37.776C79.616 39.3973 79.4027 40.8907 79.36 42.256C79.3173 43.9627 79.2107 45.4347 79.04 46.672C78.912 47.9093 78.6987 49.104 78.4 50.256C78.1013 51.408 77.6747 52.7093 77.12 54.16C76.608 55.6107 75.9253 57.424 75.072 59.6C73.408 61.648 71.616 63.056 69.696 63.824C67.776 64.6347 65.792 64.9547 63.744 64.784C62.9333 64.6987 62.08 64.1653 61.184 63.184C60.2453 62.2027 59.456 60.9013 58.816 59.28C58.176 57.6587 57.856 55.888 57.856 53.968C57.856 53.2 57.92 52.432 58.048 51.664C58.2613 50.384 58.5813 49.104 59.008 47.824C59.4347 46.544 60.0533 45.4773 60.864 44.624C61.6747 43.7707 62.7627 43.344 64.128 43.344C65.2373 43.344 66.2613 43.7493 67.2 44.56C68.1813 45.4133 68.992 46.3733 69.632 47.44C70.3147 48.5067 70.7627 49.4453 70.976 50.256C71.104 50.768 71.2107 51.3013 71.296 51.856C71.424 52.4533 71.488 53.0293 71.488 53.584C71.488 54.5653 71.296 55.248 70.912 55.632C70.4853 56.1013 69.9733 56.336 69.376 56.336C68.864 56.336 68.288 56.208 67.648 55.952C67.2213 55.8667 66.7307 55.568 66.176 55.056C65.6213 54.5867 65.344 53.968 65.344 53.2C65.344 52.688 65.4507 52.1973 65.664 51.728C65.8773 51.2587 66.0693 50.9387 66.24 50.768C66.5387 50.4693 66.7733 50.32 66.944 50.32C67.1147 50.32 67.2213 50.4053 67.264 50.576C67.3067 50.7893 67.3493 51.0027 67.392 51.216V51.28C67.392 51.408 67.328 51.536 67.2 51.664C67.072 51.8347 67.008 52.0693 67.008 52.368C67.008 53.0933 67.2 53.6053 67.584 53.904C68.0107 54.2453 68.3093 54.416 68.48 54.416C69.0347 54.416 69.312 53.8613 69.312 52.752C69.312 51.856 69.056 50.768 68.544 49.488C68.1173 48.4213 67.52 47.4827 66.752 46.672C65.984 45.904 65.1093 45.4347 64.128 45.264C63.5733 45.1787 62.9973 45.3067 62.4 45.648C61.76 46.032 61.2053 46.7147 60.736 47.696C60.4373 48.2507 60.2453 48.8693 60.16 49.552C60.032 50.2347 59.968 50.9173 59.968 51.6C59.968 52.496 60.032 53.264 60.16 53.904C60.2453 56.3787 60.9067 58.2773 62.144 59.6C63.3813 60.9653 64.9813 61.648 66.944 61.648C67.1573 61.648 67.3707 61.648 67.584 61.648C67.7973 61.648 68.0107 61.6267 68.224 61.584C69.504 61.4133 70.7413 60.7733 71.936 59.664C73.1307 58.5973 74.1333 57.3173 74.944 55.824C75.456 54.928 75.8187 53.8187 76.032 52.496C76.2453 51.216 76.3947 49.872 76.48 48.464C76.608 47.056 76.7573 45.7973 76.928 44.688C77.0133 44.304 77.056 43.9627 77.056 43.664C77.056 43.408 77.056 43.1947 77.056 43.024C77.056 42.5547 77.0133 42.0853 76.928 41.616C76.8853 41.104 76.864 40.2507 76.864 39.056C76.864 38.7147 76.864 38.3307 76.864 37.904C76.864 37.4773 76.8853 36.9867 76.928 36.432C74.9227 37.5413 73.1307 38.096 71.552 38.096C69.632 38.096 68.032 37.264 66.752 35.6C66.2827 35.0027 66.048 34.32 66.048 33.552C66.048 32.528 66.3893 31.4613 67.072 30.352C67.7973 29.2 68.736 28.112 69.888 27.088C71.0827 26.0213 72.3627 25.1253 73.728 24.4C75.136 23.632 76.5013 23.1413 77.824 22.928C78.4213 22.8427 79.0187 22.7147 79.616 22.544C80.256 22.3307 80.832 22.224 81.344 22.224C82.0693 22.224 82.6453 22.5013 83.072 23.056ZM79.872 27.792C79.9573 27.408 80.0427 27.0453 80.128 26.704C80.256 26.32 80.32 25.9787 80.32 25.68C80.32 25.4667 80.2987 25.2533 80.256 25.04C80.2133 24.784 80.0853 24.5707 79.872 24.4C79.616 24.1013 79.2107 23.952 78.656 23.952C77.9307 23.952 77.056 24.2293 76.032 24.784C75.008 25.3387 74.0053 26.1067 73.024 27.088C72.0853 28.0267 71.36 29.1573 70.848 30.48C70.6347 31.0347 70.4213 31.7387 70.208 32.592C69.9947 33.4027 69.888 34.1707 69.888 34.896C69.888 35.5787 69.9947 36.0907 70.208 36.432C70.464 36.7307 70.9333 36.88 71.616 36.88C72.256 36.88 72.96 36.752 73.728 36.496C74.5387 36.1973 75.2213 35.8133 75.776 35.344C77.056 34.1493 77.9733 32.912 78.528 31.632C79.1253 30.3093 79.5733 29.0293 79.872 27.792ZM106.019 37.008C106.147 36.88 106.318 36.816 106.531 36.816C106.83 36.816 106.979 36.9653 106.979 37.264C106.979 37.4347 106.872 37.6907 106.659 38.032C106.488 38.3733 106.104 38.7787 105.507 39.248C104.91 39.76 104.291 40.2293 103.651 40.656C103.054 41.0827 102.222 41.296 101.155 41.296C100.003 41.296 99.0857 41.0827 98.403 40.656C97.763 40.2293 97.2937 39.76 96.995 39.248C96.739 38.6933 96.5683 38.2667 96.483 37.968C95.971 38.352 95.4377 38.864 94.883 39.504C94.371 40.1013 93.6243 40.656 92.643 41.168C91.6617 41.6373 90.2537 41.872 88.419 41.872C87.395 41.872 86.4563 41.6373 85.603 41.168C84.7923 40.656 84.387 39.568 84.387 37.904C84.387 37.4347 84.4083 36.944 84.451 36.432C84.5363 35.8773 84.6643 35.28 84.835 34.64C85.347 32.6347 85.9443 31.056 86.627 29.904C87.3097 28.752 88.3337 27.8987 89.699 27.344C90.5523 27.0027 91.5977 26.6827 92.835 26.384C94.0723 26.0853 95.1603 25.8293 96.099 25.616C96.3977 25.5307 96.6537 25.2533 96.867 24.784C97.123 24.272 97.4003 23.8027 97.699 23.376C97.8697 23.1627 98.0617 22.992 98.275 22.864C98.4883 22.6933 98.723 22.608 98.979 22.608C99.1923 22.608 99.4697 22.7147 99.811 22.928C100.11 23.1413 100.302 23.5467 100.387 24.144C100.515 24.7413 100.579 25.296 100.579 25.808C100.536 26.064 100.43 26.384 100.259 26.768C100.131 27.1093 100.024 27.4933 99.939 27.92C99.8537 28.4747 99.6403 29.264 99.299 30.288C98.9577 31.312 98.787 32.1653 98.787 32.848C98.787 33.4453 98.7443 34.192 98.659 35.088C98.5737 35.9413 98.5737 36.5387 98.659 36.88C99.1283 37.904 99.7897 38.5867 100.643 38.928C101.496 39.2267 102.243 39.312 102.883 39.184C103.352 39.0987 103.886 38.8213 104.483 38.352C105.08 37.8827 105.592 37.4347 106.019 37.008ZM95.651 29.712C95.5657 29.3707 95.3523 29.008 95.011 28.624C94.7123 28.24 94.3283 28.048 93.859 28.048C93.7737 28.048 93.603 28.0907 93.347 28.176C92.6217 28.432 91.8537 28.9227 91.043 29.648C90.2323 30.3307 89.5283 31.2267 88.931 32.336C88.3337 33.4453 87.9923 34.7467 87.907 36.24C87.907 36.6667 88.035 37.2213 88.291 37.904C88.5897 38.5867 88.9737 39.1627 89.443 39.632C89.9123 40.1013 90.3817 40.2293 90.851 40.016C91.875 39.5893 92.7283 38.992 93.411 38.224C94.1363 37.4133 94.7337 36.432 95.203 35.28C95.4163 34.7253 95.5657 34.1493 95.651 33.552C95.779 32.912 95.843 32.3147 95.843 31.76C95.843 31.248 95.8217 30.8213 95.779 30.48C95.7363 30.096 95.6937 29.84 95.651 29.712ZM120.545 38.544C120.715 38.3733 120.95 38.288 121.249 38.288C121.547 38.288 121.697 38.416 121.697 38.672C121.697 38.9707 121.355 39.44 120.673 40.08C119.99 40.72 119.243 41.232 118.433 41.616C117.622 42 116.854 42.2773 116.129 42.448C115.787 42.4907 115.318 42.3627 114.72 42.064C114.166 41.808 113.825 41.5307 113.697 41.232C113.526 40.848 113.398 40.4213 113.312 39.952C113.227 39.44 113.185 38.9067 113.185 38.352C113.185 37.0293 113.334 35.664 113.633 34.256C113.931 32.848 114.209 31.632 114.465 30.608C113.953 30.7787 113.377 30.864 112.737 30.864C112.139 30.864 111.606 30.9067 111.137 30.992C110.838 31.4187 110.582 31.9093 110.369 32.464C110.155 32.976 109.857 33.552 109.473 34.192C108.79 35.3013 108.022 36.4107 107.169 37.52C106.358 38.5867 105.526 39.4613 104.672 40.144C103.819 40.8267 102.987 41.168 102.176 41.168C101.622 41.168 101.344 41.0187 101.344 40.72C101.344 40.4213 101.707 40.144 102.432 39.888C103.456 39.504 104.502 38.6933 105.569 37.456C106.635 36.2187 107.595 34.9387 108.449 33.616C108.875 32.976 109.153 32.4 109.281 31.888C109.409 31.3333 109.473 30.9067 109.473 30.608C109.473 30.608 109.281 30.3947 108.897 29.968C108.555 29.4987 108.385 29.0507 108.385 28.624C108.385 27.6853 108.683 26.832 109.281 26.064C109.921 25.296 110.582 25.0187 111.265 25.232C111.734 25.36 112.033 25.5733 112.161 25.872C112.331 26.1707 112.417 26.4907 112.417 26.832C112.417 27.216 112.353 27.6213 112.225 28.048C112.097 28.432 111.969 28.7733 111.841 29.072C111.969 29.2427 112.246 29.328 112.673 29.328C113.313 29.328 114.017 29.2 114.785 28.944C115.339 28.1333 115.873 27.4933 116.385 27.024C116.897 26.5547 117.366 26.3627 117.793 26.448C118.091 26.4907 118.369 26.5973 118.625 26.768C118.881 26.9387 119.009 27.2587 119.009 27.728C119.009 28.112 118.817 28.688 118.433 29.456C117.793 30.608 117.195 31.8667 116.641 33.232C116.086 34.5547 115.659 35.7707 115.361 36.88C115.062 37.9467 114.934 38.6933 114.977 39.12C115.062 39.6747 115.211 40.0373 115.425 40.208C115.681 40.3787 115.958 40.464 116.257 40.464C116.47 40.464 116.683 40.4427 116.897 40.4C117.153 40.3147 117.387 40.2507 117.601 40.208C118.241 39.9947 118.774 39.76 119.201 39.504C119.627 39.248 120.075 38.928 120.545 38.544ZM111.009 27.728C111.009 27.344 110.881 27.0667 110.625 26.896C110.582 26.8533 110.518 26.832 110.433 26.832C110.219 26.832 110.027 26.9813 109.857 27.28C109.686 27.536 109.601 27.792 109.601 28.048C109.601 28.2613 109.622 28.5173 109.665 28.816C109.75 29.072 109.899 29.136 110.113 29.008C110.326 28.88 110.518 28.7093 110.689 28.496C110.902 28.2827 111.009 28.0267 111.009 27.728ZM138.527 23.056C138.783 23.44 138.911 23.8667 138.911 24.336C138.911 25.2747 138.591 26.4693 137.951 27.92C137.354 29.328 136.735 30.8853 136.095 32.592C135.455 34.2987 135.114 36.048 135.071 37.84C135.028 40.144 134.986 42.512 134.943 44.944C134.943 47.376 134.666 49.744 134.111 52.048C133.599 54.3947 132.511 56.528 130.847 58.448C129.482 60.0267 128.031 61.0933 126.495 61.648C125.002 62.2453 123.423 62.544 121.759 62.544C121.46 62.544 121.14 62.5227 120.799 62.48C120.458 62.48 120.116 62.4587 119.775 62.416C118.964 62.3307 118.09 61.9467 117.151 61.264C116.212 60.5813 115.402 59.6 114.719 58.32C114.036 57.04 113.695 55.4827 113.695 53.648C113.695 53.008 113.759 52.304 113.887 51.536C114.1 50.256 114.42 48.9547 114.847 47.632C115.274 46.352 115.892 45.2853 116.703 44.432C117.514 43.5787 118.602 43.152 119.967 43.152C121.076 43.152 122.122 43.5573 123.103 44.368C124.084 45.2213 124.895 46.1813 125.535 47.248C126.218 48.3147 126.666 49.2533 126.879 50.064C127.007 50.576 127.114 51.1093 127.199 51.664C127.327 52.2613 127.391 52.8373 127.391 53.392C127.391 54.3733 127.199 55.056 126.815 55.44C126.388 55.9093 125.855 56.144 125.215 56.144C124.746 56.144 124.191 56.016 123.551 55.76C123.124 55.6747 122.612 55.376 122.015 54.864C121.46 54.3947 121.183 53.776 121.183 53.008C121.183 52.496 121.29 52.0053 121.503 51.536C121.759 51.0667 121.972 50.7467 122.143 50.576C122.484 50.32 122.719 50.192 122.847 50.192C123.06 50.192 123.21 50.4693 123.295 51.024V51.088C123.295 51.2587 123.21 51.4293 123.039 51.6C122.868 51.7707 122.804 52.0693 122.847 52.496C122.932 53.0933 123.167 53.52 123.551 53.776C123.935 54.0747 124.212 54.224 124.383 54.224C124.938 54.224 125.215 53.6693 125.215 52.56C125.215 51.664 124.959 50.576 124.447 49.296C124.02 48.2293 123.423 47.312 122.655 46.544C121.887 45.776 120.991 45.3067 119.967 45.136C119.455 45.0507 118.9 45.1787 118.303 45.52C117.663 45.8613 117.108 46.5227 116.639 47.504C116.34 48.0587 116.148 48.6773 116.063 49.36C115.935 50.0427 115.871 50.7467 115.871 51.472C115.871 52.2827 115.935 53.0507 116.063 53.776C116.148 56.1227 116.767 57.8293 117.919 58.896C119.028 60.0053 120.5 60.56 122.335 60.56C122.591 60.56 122.847 60.5387 123.103 60.496C123.402 60.496 123.7 60.4747 123.999 60.432C125.279 60.2613 126.516 59.6213 127.711 58.512C128.906 57.4027 129.908 56.1227 130.719 54.672C131.402 53.4347 131.828 52.4107 131.999 51.6C132.212 50.7893 132.319 49.808 132.319 48.656C132.319 47.9307 132.298 47.12 132.255 46.224C132.255 45.328 132.255 44.2187 132.255 42.896C132.255 42.0427 132.255 41.0827 132.255 40.016C132.298 38.9493 132.34 37.7547 132.383 36.432C130.122 37.6267 128.266 38.224 126.815 38.224C125.663 38.224 124.596 37.8613 123.615 37.136C123.274 36.88 123.018 36.56 122.847 36.176C122.719 35.7493 122.655 35.3013 122.655 34.832C122.655 33.808 122.911 32.6773 123.423 31.44C123.935 30.16 124.532 28.9867 125.215 27.92C125.898 26.8107 126.495 26 127.007 25.488C127.306 24.976 127.647 24.72 128.031 24.72C128.372 24.72 128.65 24.9333 128.863 25.36C129.076 25.744 129.076 26.0213 128.863 26.192C128.308 26.6613 127.839 27.2373 127.455 27.92C127.071 28.6027 126.708 29.3067 126.367 30.032C126.068 30.7573 125.919 31.696 125.919 32.848C125.919 33.2747 125.94 33.7013 125.983 34.128C126.068 34.5547 126.196 34.8747 126.367 35.088C126.58 35.344 126.964 35.472 127.519 35.472C128.031 35.472 128.607 35.3653 129.247 35.152C129.887 34.896 130.42 34.576 130.847 34.192C131.871 33.2533 132.596 32.272 133.023 31.248C133.492 30.1813 133.855 29.1573 134.111 28.176C134.239 27.664 134.388 27.0667 134.559 26.384C134.73 25.6587 134.815 24.9333 134.815 24.208C134.815 23.952 135.092 23.6107 135.647 23.184C136.202 22.7147 136.778 22.48 137.375 22.48C137.844 22.48 138.228 22.672 138.527 23.056ZM155.68 34.192C155.125 35.1307 154.421 36.1547 153.568 37.264C152.715 38.3307 151.819 39.248 150.88 40.016C149.984 40.784 149.131 41.168 148.32 41.168C146.997 41.168 145.952 41.104 145.184 40.976C144.459 40.8053 143.861 40.5707 143.392 40.272C142.581 39.7173 141.92 38.992 141.408 38.096C140.896 37.2 140.597 36.2827 140.512 35.344C140.469 35.088 140.448 34.832 140.448 34.576C140.448 34.32 140.448 34.0853 140.448 33.872C140.448 31.3547 140.939 29.136 141.92 27.216C142.901 25.296 144.288 24.144 146.08 23.76C146.635 23.6747 147.061 23.9093 147.36 24.464C147.659 24.976 147.808 25.68 147.808 26.576C147.808 27.9413 147.445 29.4133 146.72 30.992C146.421 31.632 146.101 32.2507 145.76 32.848C145.461 33.4027 145.205 33.8507 144.992 34.192C144.437 35.0027 144.011 35.5573 143.712 35.856C143.456 36.112 143.328 36.368 143.328 36.624C143.328 37.3067 143.755 37.968 144.608 38.608C145.461 39.248 146.784 39.568 148.576 39.568C149.259 39.568 149.963 39.2693 150.688 38.672C151.413 38.0747 152.117 37.328 152.8 36.432C153.525 35.536 154.165 34.64 154.72 33.744C154.976 33.3173 155.211 33.104 155.424 33.104C155.68 33.104 155.808 33.296 155.808 33.68C155.808 33.8507 155.765 34.0213 155.68 34.192ZM146.08 26.128C145.909 25.872 145.547 25.936 144.992 26.32C144.48 26.6613 144.011 27.472 143.584 28.752C143.285 29.6907 143.136 30.7787 143.136 32.016C143.136 32.3573 143.136 32.6987 143.136 33.04C143.179 33.3813 143.221 33.7227 143.264 34.064C143.989 32.8267 144.501 31.9093 144.8 31.312C145.141 30.672 145.397 30.0107 145.568 29.328C145.653 28.9867 145.781 28.56 145.952 28.048C146.165 27.536 146.272 27.088 146.272 26.704C146.272 26.448 146.208 26.256 146.08 26.128ZM164.809 30.352C164.809 31.3333 164.724 32.0587 164.553 32.528C164.425 32.9973 164.233 33.3813 163.977 33.68C163.764 33.9787 163.529 34.32 163.273 34.704C163.017 35.088 162.804 35.664 162.633 36.432C162.505 37.1573 162.441 38.224 162.441 39.632C162.441 40.1867 162.654 40.6347 163.081 40.976C163.508 41.3173 163.998 41.488 164.553 41.488C164.809 41.488 164.937 41.5733 164.937 41.744C164.937 41.9573 164.766 42.2133 164.425 42.512C164.126 42.8533 163.849 43.024 163.593 43.024C162.654 43.024 161.972 42.6613 161.545 41.936C161.118 41.168 160.905 40.3573 160.905 39.504C160.905 38.096 160.948 36.9867 161.033 36.176C161.118 35.3227 161.204 34.5333 161.289 33.808C161.374 33.04 161.396 32.1013 161.353 30.992C161.31 30.224 161.204 29.6267 161.033 29.2C160.862 28.7307 160.414 28.496 159.689 28.496C159.305 28.496 159.028 28.56 158.857 28.688C158.729 28.816 158.558 29.0293 158.345 29.328C157.876 30.0107 157.47 30.9707 157.129 32.208C156.83 33.4027 156.574 34.6827 156.361 36.048C156.19 37.3707 156.02 38.5653 155.849 39.632C155.721 40.656 155.593 41.3387 155.465 41.68C155.337 41.9787 155.166 42.192 154.953 42.32C154.782 42.448 154.59 42.512 154.377 42.512C154.206 42.512 154.036 42.4693 153.865 42.384C153.737 42.3413 153.63 42.2987 153.545 42.256C153.332 42.128 153.225 41.9147 153.225 41.616C153.225 41.3173 153.289 40.976 153.417 40.592C153.588 40.1653 153.716 39.7813 153.801 39.44C153.886 39.0987 154.014 38.5013 154.185 37.648C154.398 36.752 154.612 35.8347 154.825 34.896C155.038 33.9147 155.209 33.0827 155.337 32.4C155.508 31.6747 155.593 31.312 155.593 31.312C155.38 31.312 155.166 31.3333 154.953 31.376C154.74 31.376 154.526 31.376 154.313 31.376C153.673 31.376 153.353 31.12 153.353 30.608C153.353 30.2667 153.481 29.7547 153.737 29.072C153.993 28.3893 154.462 27.4933 155.145 26.384C155.358 26.0427 155.785 25.616 156.425 25.104C157.065 24.592 157.598 24.3787 158.025 24.464C158.196 24.3787 158.345 24.336 158.473 24.336C158.601 24.336 158.708 24.336 158.793 24.336C159.262 24.336 159.518 24.5067 159.561 24.848C159.646 25.1467 159.668 25.4667 159.625 25.808C159.582 26.1067 159.604 26.2347 159.689 26.192C160.286 25.936 160.884 25.808 161.481 25.808C162.377 25.808 163.145 26.1707 163.785 26.896C164.468 27.5787 164.809 28.7307 164.809 30.352ZM215.552 4.304C215.381 4.816 215.125 5.41333 214.784 6.096C214.442 6.77866 213.888 7.184 213.12 7.312C212.65 7.35467 212.245 7.248 211.904 6.992C211.605 6.69333 211.434 6.39466 211.392 6.096C211.349 5.75467 211.434 5.584 211.648 5.584C211.818 5.49866 211.946 5.456 212.032 5.456C212.245 5.456 212.437 5.56266 212.608 5.776C212.778 5.94666 213.034 6.01066 213.376 5.968C213.845 6.01066 214.165 5.86133 214.336 5.52C214.549 5.136 214.656 4.66666 214.656 4.112C214.656 3.77067 214.613 3.38667 214.528 2.96C214.485 2.53333 214.378 2.17067 214.208 1.872C213.994 1.40267 213.717 1.168 213.376 1.168C212.949 1.168 212.458 1.488 211.904 2.128C211.349 2.72533 210.858 3.472 210.432 4.368C210.005 5.22133 209.728 6.05333 209.6 6.864L207.424 21.008C207.808 21.0507 208.106 21.1147 208.32 21.2C208.576 21.2427 208.81 21.264 209.024 21.264C209.237 21.264 209.536 21.2 209.92 21.072C212.053 20.2187 213.44 19.1307 214.08 17.808C214.293 17.5093 214.378 17.5093 214.336 17.808C214.293 18.064 214.186 18.4053 214.016 18.832C213.888 19.2587 213.717 19.5787 213.504 19.792C212.437 21.072 211.477 21.968 210.624 22.48C209.77 22.992 209.045 23.312 208.448 23.44C207.893 23.568 207.466 23.7387 207.168 23.952C206.997 24.0373 206.912 24.2293 206.912 24.528C206.912 23.9733 206.89 23.696 206.848 23.696C206.805 23.696 206.741 24.336 206.656 25.616C206.57 26.896 206.528 28.4107 206.528 30.16C206.528 31.6107 206.57 33.104 206.656 34.64C206.741 36.1333 206.89 37.52 207.104 38.8C207.317 40.0373 207.616 41.0187 208 41.744C208.384 42.4267 208.853 42.6827 209.408 42.512C210.304 42.0853 211.072 41.6587 211.712 41.232C212.352 40.7627 212.906 40.0587 213.376 39.12C213.589 38.6933 213.802 38.288 214.016 37.904C214.229 37.52 214.336 37.1147 214.336 36.688C214.336 36.3893 214.229 36.0693 214.016 35.728C213.589 35.088 213.141 34.768 212.672 34.768C212.16 34.768 211.669 35.0667 211.2 35.664C210.73 36.2613 210.304 36.88 209.92 37.52C209.578 38.1173 209.301 38.4587 209.088 38.544C208.917 38.6293 208.832 38.16 208.832 37.136C208.832 36.7093 208.917 36.3253 209.088 35.984C209.258 35.6427 209.472 35.3227 209.728 35.024C210.538 34.0853 211.413 33.616 212.352 33.616C212.522 33.616 212.672 33.6373 212.8 33.68C212.928 33.68 213.077 33.7013 213.248 33.744C213.845 33.7867 214.25 34.064 214.464 34.576C214.72 35.088 214.847 35.7067 214.847 36.432C214.847 36.6453 214.826 36.88 214.784 37.136C214.784 37.392 214.762 37.648 214.72 37.904C214.592 38.8853 214.144 39.9307 213.376 41.04C212.608 42.1067 211.754 42.9813 210.816 43.664C209.877 44.3893 209.066 44.688 208.384 44.56C207.274 44.3467 206.378 43.728 205.696 42.704C205.056 41.68 204.608 40.3787 204.352 38.8C204.096 37.2213 203.968 35.5147 203.968 33.68C203.968 32.2293 204.032 30.7573 204.16 29.264C204.288 27.728 204.437 26.256 204.608 24.848L199.872 24.528C199.658 24.5707 199.402 24.592 199.104 24.592C198.72 24.592 198.4 24.5707 198.144 24.528C197.888 24.4427 197.61 24.4 197.312 24.4C197.056 24.4 196.757 24.4427 196.416 24.528C196.117 24.6133 195.712 24.784 195.2 25.04L192 40.464C191.829 41.4027 191.488 42.4053 190.976 43.472C190.464 44.5813 189.845 45.584 189.12 46.48C188.394 47.4187 187.584 48.144 186.688 48.656C185.834 49.168 184.938 49.3387 184 49.168C182.933 48.9547 181.994 48.5067 181.184 47.824C180.373 47.1413 179.733 46.3733 179.264 45.52C178.922 44.5387 178.73 43.6 178.688 42.704C178.602 41.808 178.559 41.232 178.559 40.976C178.73 40.1653 179.114 39.2693 179.712 38.288C180.309 37.264 181.034 36.4107 181.888 35.728C182.741 35.0027 183.616 34.7253 184.512 34.896C185.621 35.0667 186.389 35.5147 186.816 36.24C187.285 36.9653 187.605 37.7973 187.776 38.736C187.861 39.0347 187.925 39.3333 187.968 39.632C188.01 39.9307 188.032 40.2293 188.032 40.528C188.032 40.8693 187.968 41.2107 187.84 41.552C187.712 41.8507 187.456 42.1067 187.072 42.32C186.773 42.5333 186.325 42.64 185.728 42.64C185.045 42.64 184.426 42.4693 183.872 42.128C183.36 41.8293 183.232 41.4667 183.488 41.04C183.616 40.784 183.808 40.656 184.064 40.656C184.362 40.656 184.682 40.7413 185.024 40.912C185.365 41.04 185.685 41.104 185.984 41.104C186.282 41.104 186.517 41.0187 186.688 40.848C186.816 40.6347 186.88 40.4213 186.88 40.208C186.88 39.4827 186.581 38.672 185.984 37.776C185.429 36.8373 184.746 36.304 183.936 36.176C183.68 36.1333 183.253 36.304 182.656 36.688C182.101 37.072 181.546 37.6267 180.992 38.352C180.48 39.0773 180.096 39.9733 179.84 41.04C179.797 41.808 179.84 42.5333 179.968 43.216C180.138 43.8987 180.373 44.5387 180.672 45.136C181.013 45.8613 181.482 46.224 182.08 46.224C182.677 46.2667 183.338 46.3733 184.064 46.544C184.277 46.5867 184.469 46.608 184.64 46.608C184.853 46.6507 185.045 46.672 185.216 46.672C186.624 46.672 187.648 46.096 188.288 44.944C188.97 43.792 189.461 42.2987 189.76 40.464L192.512 25.488C191.445 26.128 190.805 26.576 190.592 26.832C190.378 27.088 190.101 27.344 189.76 27.6C189.589 27.6853 189.482 27.728 189.44 27.728C189.226 27.728 189.12 27.5573 189.12 27.216C189.12 27.0027 189.162 26.768 189.248 26.512C189.589 25.4027 190.122 24.592 190.848 24.08C191.573 23.5253 192.17 22.9493 192.64 22.352C193.024 21.8827 193.216 21.328 193.216 20.688C193.344 20.176 193.408 19.4933 193.408 18.64C193.408 17.5307 193.28 16.272 193.024 14.864C192.81 13.4133 192.448 12.0053 191.936 10.64C191.466 9.27467 190.826 8.12267 190.016 7.184C189.205 6.20266 188.224 5.60533 187.072 5.392C186.816 5.34933 186.56 5.328 186.304 5.328C186.09 5.28533 185.877 5.264 185.664 5.264C184.896 5.264 184.234 5.392 183.68 5.648C183.168 5.86133 182.911 6.20266 182.911 6.672C182.911 7.09866 183.018 7.39733 183.232 7.568C183.445 7.696 183.701 7.76 184 7.76C184.298 7.76 184.597 7.73867 184.896 7.696C185.194 7.61066 185.472 7.568 185.728 7.568C186.154 7.568 186.368 7.76 186.368 8.144C186.368 8.57066 186.176 8.86933 185.792 9.04C185.45 9.21066 185.045 9.296 184.576 9.296C183.936 9.296 183.36 9.14666 182.848 8.848C182.208 8.37866 181.888 7.80266 181.888 7.12C181.888 5.24266 182.357 3.89866 183.296 3.088C184.277 2.27733 185.493 1.872 186.944 1.872C189.205 1.872 191.082 2.66133 192.576 4.24C194.069 5.776 194.901 7.73867 195.072 10.128C195.114 10.7253 195.2 11.9627 195.328 13.84C195.498 15.6747 195.583 17.616 195.583 19.664C195.583 20.048 195.583 20.4533 195.583 20.88C195.583 21.264 195.562 21.648 195.52 22.032L205.056 21.968C205.141 21.6693 205.248 20.944 205.376 19.792C205.546 18.64 205.76 17.2533 206.016 15.632C206.272 14.0107 206.613 12.3253 207.04 10.576C207.466 8.82667 207.957 7.184 208.512 5.648C209.109 4.112 209.792 2.87466 210.56 1.936C211.328 0.954664 212.202 0.463997 213.184 0.463997C213.824 0.463997 214.378 0.67733 214.847 1.104C215.36 1.488 215.616 2.192 215.616 3.216C215.616 3.38666 215.616 3.55733 215.616 3.728C215.616 3.89866 215.594 4.09066 215.552 4.304ZM230.287 29.968C230.287 30.864 230.095 32.0373 229.711 33.488C229.327 34.9387 228.815 36.304 228.175 37.584C227.578 38.9067 226.895 39.888 226.127 40.528C225.402 41.1253 224.698 41.552 224.015 41.808C223.332 42.0213 222.778 42.2347 222.351 42.448C222.18 42.4907 221.988 42.5333 221.775 42.576C221.604 42.6613 221.412 42.704 221.199 42.704C220.346 42.704 219.684 42.4693 219.215 42C219.044 41.8293 218.767 41.6587 218.383 41.488C218.042 41.3173 217.722 41.0187 217.423 40.592C217.124 40.1653 216.975 39.4613 216.975 38.48C216.975 37.456 217.103 36.4747 217.359 35.536C216.591 34.64 216.207 33.6587 216.207 32.592C216.207 31.952 216.356 31.3333 216.655 30.736C217.466 29.2 218.49 28.0053 219.727 27.152C220.964 26.2987 222.138 25.7013 223.247 25.36C224.399 25.0187 225.188 24.848 225.615 24.848C227.194 24.848 228.367 25.36 229.135 26.384C229.903 27.408 230.287 28.6027 230.287 29.968ZM227.663 30.288C227.663 29.3067 227.322 28.496 226.639 27.856C225.999 27.216 225.188 26.896 224.207 26.896C223.396 26.896 222.564 27.152 221.711 27.664C220.9 28.1333 220.196 28.7307 219.599 29.456C219.002 30.1813 218.618 30.8853 218.447 31.568C218.404 31.824 218.362 32.0587 218.319 32.272C218.319 32.4853 218.319 32.6987 218.319 32.912C218.788 31.888 219.279 31.0347 219.791 30.352C220.346 29.6693 220.751 29.2427 221.007 29.072C221.22 28.9013 221.498 28.816 221.839 28.816C222.308 28.816 222.543 28.944 222.543 29.2C222.543 29.3707 222.308 29.6907 221.839 30.16C221.412 30.5867 220.922 31.1627 220.367 31.888C219.812 32.5707 219.343 33.424 218.959 34.448C219.3 34.8747 219.748 35.1947 220.303 35.408C220.9 35.5787 221.476 35.664 222.031 35.664C222.628 35.664 223.183 35.5573 223.695 35.344C224.25 35.088 224.612 34.7467 224.783 34.32C224.826 34.192 224.847 34.0853 224.847 34C224.89 33.872 224.911 33.7653 224.911 33.68C224.911 33.2533 224.719 32.9973 224.335 32.912C223.994 32.784 223.652 32.7413 223.311 32.784H223.183C222.714 32.784 222.479 32.6773 222.479 32.464C222.479 32.336 222.522 32.208 222.607 32.08C222.735 31.952 222.842 31.8453 222.927 31.76C223.183 31.504 223.46 31.376 223.759 31.376C224.186 31.376 224.655 31.6533 225.167 32.208C225.636 32.848 225.871 33.4667 225.871 34.064C225.871 34.832 225.487 35.4293 224.719 35.856C223.994 36.2827 223.183 36.5813 222.287 36.752C221.391 36.9227 220.708 37.008 220.239 37.008C219.556 37.008 219.002 36.8587 218.575 36.56C218.532 36.6453 218.511 36.8373 218.511 37.136C218.511 38.3307 218.831 39.1413 219.471 39.568C220.111 39.952 220.644 40.2507 221.071 40.464C221.327 40.5493 221.54 40.592 221.711 40.592C222.308 40.592 222.927 40.336 223.567 39.824C224.25 39.312 224.847 38.608 225.359 37.712C225.743 37.0293 226.106 36.2187 226.447 35.28C226.788 34.3413 227.066 33.424 227.279 32.528C227.535 31.5893 227.663 30.8427 227.663 30.288ZM250.779 37.968C249.67 39.2907 248.71 40.208 247.899 40.72C247.088 41.232 246.384 41.488 245.787 41.488C245.019 41.488 244.358 41.1893 243.803 40.592C243.291 39.952 242.843 39.2693 242.459 38.544C242.118 37.8187 241.84 37.3067 241.627 37.008C240.816 37.7333 239.856 38.5013 238.747 39.312C237.638 40.08 236.72 40.464 235.995 40.464C234.63 40.464 233.563 40.1227 232.795 39.44C232.027 38.7147 231.643 37.6693 231.643 36.304C231.643 34.896 231.814 33.232 232.155 31.312C232.539 29.392 233.008 27.4933 233.563 25.616C234.118 23.696 234.651 22.096 235.163 20.816C235.291 20.432 235.547 20.112 235.931 19.856C236.358 19.6 236.784 19.472 237.211 19.472C237.723 19.472 238.064 19.6 238.235 19.856C238.406 20.112 238.491 20.4107 238.491 20.752C238.491 21.1787 238.406 21.6053 238.235 22.032C238.107 22.416 238.043 22.608 238.043 22.608C237.531 24.0587 236.934 25.5733 236.251 27.152C235.611 28.7307 235.014 30.5227 234.459 32.528C234.416 32.784 234.352 33.1467 234.267 33.616C234.224 34.0853 234.203 34.576 234.203 35.088C234.203 35.8133 234.288 36.496 234.459 37.136C234.672 37.7333 235.056 38.032 235.611 38.032C236.08 38.032 236.699 37.7547 237.467 37.2C238.278 36.6453 239.088 35.8773 239.899 34.896C240.71 33.9147 241.35 32.784 241.819 31.504C242.246 30.352 242.63 29.0933 242.971 27.728C243.312 26.3627 243.611 25.0827 243.867 23.888C244.166 22.6507 244.443 21.6907 244.699 21.008C244.827 20.7093 245.019 20.56 245.275 20.56C245.616 20.56 245.915 20.688 246.171 20.944C246.47 21.2 246.576 21.4347 246.491 21.648C246.32 22.0747 246.086 22.7787 245.787 23.76C245.488 24.7413 245.19 25.8293 244.891 27.024C244.592 28.2187 244.315 29.392 244.059 30.544C243.803 31.6533 243.59 32.592 243.419 33.36C243.248 34.128 243.163 34.5547 243.163 34.64C243.163 35.28 243.227 35.856 243.355 36.368C243.483 36.88 243.696 37.4347 243.995 38.032C244.208 38.3733 244.464 38.7573 244.763 39.184C245.104 39.568 245.446 39.76 245.787 39.76C246.598 39.76 247.366 39.4827 248.091 38.928C248.859 38.3307 249.435 37.7547 249.819 37.2C250.118 36.7307 250.395 36.496 250.651 36.496C250.907 36.496 251.035 36.7307 251.035 37.2C251.035 37.5413 250.95 37.7973 250.779 37.968ZM264.61 37.648C264.055 38.2027 263.565 38.7573 263.138 39.312C262.711 39.8667 261.773 40.5067 260.322 41.232C260.151 41.488 259.767 41.872 259.17 42.384C258.615 42.896 257.506 43.1947 255.842 43.28C254.733 43.3227 253.837 43.0453 253.154 42.448C252.514 41.8933 252.023 41.2107 251.682 40.4C251.341 39.5893 251.042 38.8427 250.786 38.16C250.743 38.2027 250.551 38.3733 250.21 38.672C249.869 38.9707 249.527 39.2693 249.186 39.568C248.802 39.8667 248.567 40.0587 248.482 40.144C248.439 40.1867 248.354 40.208 248.226 40.208C248.013 40.208 247.842 40.1013 247.714 39.888C247.543 39.632 247.543 39.4187 247.714 39.248C248.525 38.4373 249.143 37.8187 249.57 37.392C249.997 36.9227 250.381 36.4747 250.722 36.048C251.063 35.6213 251.469 35.088 251.938 34.448C252.663 33.3387 253.431 32.3573 254.242 31.504C255.095 30.608 255.629 29.9467 255.842 29.52C255.885 29.4773 255.906 29.392 255.906 29.264C255.906 29.136 255.842 29.0293 255.714 28.944C255.629 28.8587 255.565 28.752 255.522 28.624C255.351 27.9413 255.266 27.3013 255.266 26.704C255.266 25.7653 255.629 24.656 256.354 23.376C256.653 23.1627 257.058 22.992 257.57 22.864C258.082 22.6933 258.487 22.672 258.786 22.8C259.127 22.9707 259.341 23.1627 259.426 23.376C259.554 23.5893 259.661 23.8667 259.746 24.208C259.746 24.2507 259.746 24.2933 259.746 24.336C259.789 24.3787 259.81 24.4427 259.81 24.528C259.81 24.784 259.767 25.0613 259.682 25.36C259.597 25.6587 259.49 25.9787 259.362 26.32C259.362 26.4907 259.149 26.8107 258.722 27.28C258.338 27.7493 258.21 28.048 258.338 28.176C258.594 28.7307 259.021 29.456 259.618 30.352C260.343 31.376 260.834 32.3147 261.09 33.168C261.389 34.0213 261.538 34.7893 261.538 35.472C261.538 36.2827 261.41 36.9867 261.154 37.584C260.941 38.1813 260.77 38.6933 260.642 39.12C261.026 39.1627 261.474 38.9707 261.986 38.544C262.498 38.0747 262.989 37.5627 263.458 37.008C263.97 36.4107 264.354 35.984 264.61 35.728C264.866 35.472 265.058 35.344 265.186 35.344C265.399 35.344 265.399 35.664 265.186 36.304C265.015 36.944 264.823 37.392 264.61 37.648ZM258.402 25.36C258.402 25.1893 258.381 24.9973 258.338 24.784C258.295 24.5707 258.167 24.4427 257.954 24.4H257.89C257.677 24.4 257.506 24.5067 257.378 24.72C257.25 24.8907 257.143 25.0613 257.058 25.232C256.93 25.5733 256.802 25.872 256.674 26.128C256.589 26.3413 256.631 26.5547 256.802 26.768C256.973 26.8533 257.271 26.6827 257.698 26.256C258.167 25.7867 258.402 25.488 258.402 25.36ZM258.53 35.6C258.53 34.96 258.402 34.2773 258.146 33.552C257.933 32.784 257.677 32.1013 257.378 31.504C257.122 30.9067 256.93 30.5227 256.802 30.352C256.802 30.352 256.546 30.672 256.034 31.312C255.522 31.9093 254.967 32.5707 254.37 33.296C253.986 33.7227 253.602 34.2773 253.218 34.96C252.834 35.6427 252.599 36.24 252.514 36.752C252.514 36.752 252.706 37.008 253.09 37.52C253.474 37.9893 253.943 38.4373 254.498 38.864C255.095 39.2907 255.671 39.44 256.226 39.312C257.079 39.0987 257.677 38.608 258.018 37.84C258.359 37.0293 258.53 36.2827 258.53 35.6ZM256.354 40.592H255.778C255.607 40.592 255.415 40.592 255.202 40.592C254.989 40.5493 254.775 40.5067 254.562 40.464C254.349 40.3787 254.029 40.208 253.602 39.952C253.175 39.696 252.962 39.568 252.962 39.568C252.962 39.568 252.941 39.6107 252.898 39.696C252.898 39.7813 252.898 39.888 252.898 40.016C252.898 40.1867 252.919 40.3787 252.962 40.592C253.047 40.8053 253.197 41.0187 253.41 41.232C253.751 41.488 254.05 41.7013 254.306 41.872C254.562 42 254.903 42 255.33 41.872C255.629 41.7867 255.863 41.552 256.034 41.168C256.247 40.784 256.354 40.592 256.354 40.592ZM278.493 34.192C277.938 35.1307 277.234 36.1547 276.381 37.264C275.527 38.3307 274.631 39.248 273.693 40.016C272.797 40.784 271.943 41.168 271.133 41.168C269.81 41.168 268.765 41.104 267.997 40.976C267.271 40.8053 266.674 40.5707 266.205 40.272C265.394 39.7173 264.733 38.992 264.221 38.096C263.709 37.2 263.41 36.2827 263.325 35.344C263.282 35.088 263.261 34.832 263.261 34.576C263.261 34.32 263.261 34.0853 263.261 33.872C263.261 31.3547 263.751 29.136 264.733 27.216C265.714 25.296 267.101 24.144 268.893 23.76C269.447 23.6747 269.874 23.9093 270.173 24.464C270.471 24.976 270.621 25.68 270.621 26.576C270.621 27.9413 270.258 29.4133 269.533 30.992C269.234 31.632 268.914 32.2507 268.573 32.848C268.274 33.4027 268.018 33.8507 267.805 34.192C267.25 35.0027 266.823 35.5573 266.525 35.856C266.269 36.112 266.141 36.368 266.141 36.624C266.141 37.3067 266.567 37.968 267.421 38.608C268.274 39.248 269.597 39.568 271.389 39.568C272.071 39.568 272.775 39.2693 273.501 38.672C274.226 38.0747 274.93 37.328 275.613 36.432C276.338 35.536 276.978 34.64 277.533 33.744C277.789 33.3173 278.023 33.104 278.237 33.104C278.493 33.104 278.621 33.296 278.621 33.68C278.621 33.8507 278.578 34.0213 278.493 34.192ZM268.893 26.128C268.722 25.872 268.359 25.936 267.805 26.32C267.293 26.6613 266.823 27.472 266.397 28.752C266.098 29.6907 265.949 30.7787 265.949 32.016C265.949 32.3573 265.949 32.6987 265.949 33.04C265.991 33.3813 266.034 33.7227 266.077 34.064C266.802 32.8267 267.314 31.9093 267.613 31.312C267.954 30.672 268.21 30.0107 268.381 29.328C268.466 28.9867 268.594 28.56 268.765 28.048C268.978 27.536 269.085 27.088 269.085 26.704C269.085 26.448 269.021 26.256 268.893 26.128Z" fill="white"/>
</svg>
