<svg width="173" height="58" viewBox="0 0 173 58" fill="none" xmlns="http://www.w3.org/2000/svg">
<path d="M51.88 14.76C51.88 17.9067 51.32 20.7333 50.2 23.24C49.1333 25.6933 47.7467 27.8533 46.04 29.72C44.3867 31.5867 42.6533 33.24 40.84 34.68C38.7067 36.3333 36.04 37.16 32.84 37.16C31.8267 37.16 31.1067 37.1333 30.68 37.08C30.2533 36.9733 29.96 36.76 29.8 36.44C29.64 36.12 29.4267 35.56 29.16 34.76C29.1067 34.6 29.08 34.36 29.08 34.04C29.08 33.6133 29.16 33.2933 29.32 33.08C29.5333 32.8667 29.7467 32.9733 29.96 33.4C30.2267 34.0933 30.5467 34.5733 30.92 34.84C31.2933 35.0533 31.9333 35.16 32.84 35.16C34.2267 35.16 35.3467 34.8933 36.2 34.36C37.1067 33.7733 37.9867 33.16 38.84 32.52C40.5467 31.24 42.1467 29.7733 43.64 28.12C45.1867 26.4133 46.44 24.44 47.4 22.2C48.36 19.96 48.84 17.4 48.84 14.52C48.84 12.4933 48.3333 10.7867 47.32 9.4C46.3067 8.01333 44.9467 6.92 43.24 6.12C41.5333 5.26666 39.6667 4.65333 37.64 4.28C35.6133 3.90666 33.5867 3.72 31.56 3.72C30.7067 3.72 29.8267 3.77333 28.92 3.88C28.0667 3.98666 27.24 4.09333 26.44 4.2C23.72 4.41333 21.5067 4.70667 19.8 5.08C18.1467 5.45333 16.7333 6.04 15.56 6.84C14.3867 7.58666 13.2133 8.68 12.04 10.12C11.4 10.8667 11 11.9867 10.84 13.48C10.68 14.9733 10.6 16.3333 10.6 17.56C10.6 19.8533 10.84 21.5867 11.32 22.76C11.8 23.9333 13.0267 24.52 15 24.52C15.7467 24.52 16.68 24.28 17.8 23.8C18.92 23.2667 20.0133 22.6267 21.08 21.88C22.2 21.08 23.0267 20.2533 23.56 19.4C23.9333 18.8133 24.36 18.52 24.84 18.52C25.2133 18.52 25.4 18.7867 25.4 19.32C25.4 19.7467 25.2133 20.4133 24.84 21.32C24.68 21.6933 24.2 22.1733 23.4 22.76C22.6533 23.3467 21.7467 23.9333 20.68 24.52C19.6133 25.0533 18.5467 25.5067 17.48 25.88C16.4667 26.2533 15.64 26.44 15 26.44C13.3467 26.44 11.88 25.96 10.6 25C9.32 24.04 8.30667 22.76 7.56 21.16C6.86667 19.56 6.52 17.8267 6.52 15.96C6.52 14.36 7 13.0267 7.96 11.96C8.92 10.84 9.74667 9.85333 10.44 9C12.4133 6.65333 14.76 4.78667 17.48 3.4C20.2533 2.01333 23.8267 1.16 28.2 0.839997C29.1067 0.733332 29.9867 0.653331 30.84 0.599996C31.6933 0.546663 32.5467 0.519997 33.4 0.519997C36.5467 0.519997 39.5067 1.08 42.28 2.2C45.1067 3.26666 47.4 4.86666 49.16 7C50.9733 9.08 51.88 11.6667 51.88 14.76ZM36.92 5.88C36.9733 5.88 37.0267 5.88 37.08 5.88C37.1333 5.82667 37.1867 5.8 37.24 5.8C37.5067 5.8 37.64 5.93333 37.64 6.2C37.64 6.73333 37.2667 7.13333 36.52 7.4C34.76 7.82667 33.5067 8.54667 32.76 9.56C32.0667 10.52 31.4267 11.8267 30.84 13.48C30.04 15.8267 29.48 18.0133 29.16 20.04C28.84 22.0133 28.6267 24.04 28.52 26.12C28.4133 28.2 28.2533 30.5733 28.04 33.24C27.8267 36.2267 27.3467 39.1867 26.6 42.12C25.9067 45.0533 24.8933 47.72 23.56 50.12C22.2267 52.4667 20.52 54.36 18.44 55.8C16.36 57.24 13.8267 57.96 10.84 57.96C9.08 57.96 7.42667 57.32 5.88 56.04C4.33333 54.76 3.08 53.1333 2.12 51.16C1.21333 49.24 0.76 47.3467 0.76 45.48C0.76 43.9333 1.08 42.6267 1.72 41.56C2.36 40.44 2.89333 39.3733 3.32 38.36C4.22667 36.92 5.24 35.5333 6.36 34.2C7.53333 32.8133 8.89333 31.6933 10.44 30.84C11.9867 29.9333 13.7733 29.48 15.8 29.48C18.3067 29.48 19.9867 30.1467 20.84 31.48C21.6933 32.8133 22.12 34.6533 22.12 37C22.12 39.7733 21.3467 41.9067 19.8 43.4C18.2533 44.8933 16.0667 45.64 13.24 45.64C12.3867 45.64 11.6667 45.3733 11.08 44.84C10.4933 44.2533 10.2 43.5067 10.2 42.6C10.2 41.8533 10.3867 41.3467 10.76 41.08C11.1867 40.8133 11.6133 40.5733 12.04 40.36C12.1467 40.3067 12.28 40.28 12.44 40.28C12.7067 40.28 12.9467 40.4133 13.16 40.68C13.3733 40.8933 13.48 41.1333 13.48 41.4C13.48 41.7733 13.2933 41.9867 12.92 42.04C12.76 42.0933 12.5733 42.1467 12.36 42.2C12.1467 42.2 12.04 42.3333 12.04 42.6C12.04 43.3467 12.44 43.72 13.24 43.72C17.88 43.72 20.2 41.48 20.2 37C20.2 35.3467 19.9333 34.0133 19.4 33C18.8667 31.9333 17.6667 31.4 15.8 31.4C14.04 31.4 12.4933 31.8 11.16 32.6C9.82667 33.4 8.68 34.4133 7.72 35.64C6.76 36.8667 5.90667 38.12 5.16 39.4C4.62667 40.2533 4.09333 41.1333 3.56 42.04C3.02667 42.9467 2.76 44.0933 2.76 45.48C2.76 47.0267 3 48.6267 3.48 50.28C4.01333 51.88 4.78667 53.24 5.8 54.36C6.81333 55.48 8.01333 56.04 9.4 56.04C12.1733 56.04 14.4667 55.4 16.28 54.12C18.1467 52.84 19.6133 51.1333 20.68 49C21.7467 46.8667 22.5467 44.4667 23.08 41.8C23.6667 39.08 24.0667 36.3333 24.28 33.56C24.6 29.56 25.1067 25.9867 25.8 22.84C26.5467 19.6933 27.5333 16.3333 28.76 12.76C29.4533 10.7333 30.44 9.21333 31.72 8.2C33.0533 7.18666 34.7867 6.41333 36.92 5.88ZM66.6938 41.24C66.0004 42.4133 65.1204 43.6933 64.0538 45.08C62.9871 46.4133 61.8671 47.56 60.6938 48.52C59.5738 49.48 58.5071 49.96 57.4938 49.96C55.8404 49.96 54.5338 49.88 53.5738 49.72C52.6671 49.5067 51.9204 49.2133 51.3338 48.84C50.3204 48.1467 49.4938 47.24 48.8538 46.12C48.2138 45 47.8404 43.8533 47.7338 42.68C47.6804 42.36 47.6538 42.04 47.6538 41.72C47.6538 41.4 47.6538 41.1067 47.6538 40.84C47.6538 37.6933 48.2671 34.92 49.4938 32.52C50.7204 30.12 52.4538 28.68 54.6938 28.2C55.3871 28.0933 55.9204 28.3867 56.2938 29.08C56.6671 29.72 56.8538 30.6 56.8538 31.72C56.8538 33.4267 56.4004 35.2667 55.4938 37.24C55.1204 38.04 54.7204 38.8133 54.2938 39.56C53.9204 40.2533 53.6004 40.8133 53.3338 41.24C52.6404 42.2533 52.1071 42.9467 51.7338 43.32C51.4138 43.64 51.2538 43.96 51.2538 44.28C51.2538 45.1333 51.7871 45.96 52.8538 46.76C53.9204 47.56 55.5738 47.96 57.8138 47.96C58.6671 47.96 59.5471 47.5867 60.4538 46.84C61.3604 46.0933 62.2404 45.16 63.0938 44.04C64.0004 42.92 64.8004 41.8 65.4938 40.68C65.8138 40.1467 66.1071 39.88 66.3738 39.88C66.6938 39.88 66.8538 40.12 66.8538 40.6C66.8538 40.8133 66.8004 41.0267 66.6938 41.24ZM54.6938 31.16C54.4804 30.84 54.0271 30.92 53.3338 31.4C52.6938 31.8267 52.1071 32.84 51.5738 34.44C51.2004 35.6133 51.0138 36.9733 51.0138 38.52C51.0138 38.9467 51.0138 39.3733 51.0138 39.8C51.0671 40.2267 51.1204 40.6533 51.1738 41.08C52.0804 39.5333 52.7204 38.3867 53.0938 37.64C53.5204 36.84 53.8404 36.0133 54.0538 35.16C54.1604 34.7333 54.3204 34.2 54.5338 33.56C54.8004 32.92 54.9338 32.36 54.9338 31.88C54.9338 31.56 54.8538 31.32 54.6938 31.16ZM77.465 23.64C77.305 24.0667 77.1183 24.52 76.905 25C76.745 25.48 76.585 25.9333 76.425 26.36L76.985 26.44C77.305 26.4933 77.5983 26.5467 77.865 26.6C78.185 26.6 78.4783 26.6 78.745 26.6C79.1717 26.6 79.545 26.5733 79.865 26.52C80.185 26.4133 80.425 26.3333 80.585 26.28C81.0117 26.1733 81.2783 26.04 81.385 25.88C81.4917 25.72 81.545 25.64 81.545 25.64C81.545 25.4267 81.625 25.2133 81.785 25C81.945 24.7333 82.1317 24.6 82.345 24.6C82.6117 24.6 82.825 24.84 82.985 25.32C82.985 25.32 82.9583 25.5867 82.905 26.12C82.905 26.6533 82.2383 27.1867 80.905 27.72C79.9983 28.0933 78.4517 28.3333 76.265 28.44H75.465C75.145 29.1867 74.7983 29.9333 74.425 30.68C74.105 31.3733 73.7583 32.0667 73.385 32.76C72.265 34.8933 71.305 36.4667 70.505 37.48C69.7583 38.4933 69.1717 39.2667 68.745 39.8C68.3183 40.28 68.025 40.8667 67.865 41.56C67.8117 41.88 67.7583 42.1733 67.705 42.44C67.705 42.7067 67.705 42.9733 67.705 43.24C67.705 45.2133 68.265 46.6533 69.385 47.56C70.5583 48.4667 71.6783 48.92 72.745 48.92C73.9717 48.92 75.1983 48.4933 76.425 47.64C77.6517 46.7333 78.665 45.9067 79.465 45.16C80.105 44.6267 80.585 44.36 80.905 44.36C81.1183 44.36 81.225 44.4667 81.225 44.68C81.225 45.0533 80.9317 45.64 80.345 46.44C80.025 46.8667 79.4917 47.4533 78.745 48.2C77.9983 48.9467 77.065 49.64 75.945 50.28C74.825 50.8667 73.5717 51.16 72.185 51.16C69.4117 51.16 67.545 50.52 66.585 49.24C65.6783 47.96 65.225 45.8267 65.225 42.84C65.225 40.9733 65.3583 38.7867 65.625 36.28C65.945 33.72 66.3983 30.9733 66.985 28.04L65.625 27.96C64.9317 27.96 64.3983 28.0667 64.025 28.28C63.705 28.44 63.4383 28.52 63.225 28.52C62.6917 28.52 62.425 28.12 62.425 27.32C62.425 26.4133 62.665 25.72 63.145 25.24C63.5183 24.8667 64.1583 24.68 65.065 24.68C65.4917 24.68 65.9183 24.7333 66.345 24.84C66.7717 24.8933 67.225 24.9733 67.705 25.08L68.185 23.24L69.465 18.6C69.5717 18.0667 69.6783 17.64 69.785 17.32C69.8917 17 70.025 16.6 70.185 16.12C71.0917 13.4 72.0783 10.7867 73.145 8.28C74.2117 5.77333 75.7583 3.53333 77.785 1.56C78.1583 0.973332 78.665 0.679999 79.305 0.679999C79.785 0.679999 80.2117 0.893332 80.585 1.32C80.9583 1.69333 81.1183 2.14666 81.065 2.68C81.065 2.68 81.0383 3.34666 80.985 4.68C80.9317 6.01333 80.825 7.64 80.665 9.56C80.505 11.4267 80.265 13.2133 79.945 14.92C79.785 15.9333 79.545 17.0267 79.225 18.2C78.9583 19.32 78.6117 20.4667 78.185 21.64L77.465 23.64ZM70.985 25.56C71.3583 25.6667 71.705 25.7467 72.025 25.8C72.3983 25.8533 72.7983 25.9333 73.225 26.04L73.945 26.12C74.1583 25.7467 74.345 25.3467 74.505 24.92C74.665 24.44 74.825 24.0133 74.985 23.64L75.865 21.48C76.0783 20.8933 76.265 20.3867 76.425 19.96C76.585 19.48 76.745 19.0533 76.905 18.68C77.4917 16.7067 77.9717 14.68 78.345 12.6C78.7183 10.52 78.905 8.89333 78.905 7.72C78.905 6.76 78.7717 6.2 78.505 6.04C78.185 5.98666 77.6783 6.6 76.985 7.88C76.2917 9.16 75.545 10.84 74.745 12.92C73.945 15 73.1717 17.2133 72.425 19.56C72.3717 19.7733 72.3183 19.9867 72.265 20.2C72.2117 20.36 72.1583 20.5467 72.105 20.76L71.465 23.56L70.985 25.56ZM68.985 36.28C69.5717 35.5333 70.2117 34.4667 70.905 33.08C71.5983 31.64 72.2917 30.0933 72.985 28.44H72.345C72.025 28.44 71.6783 28.44 71.305 28.44C70.985 28.44 70.6917 28.4133 70.425 28.36C70.105 29.7467 69.8117 31.1333 69.545 32.52C69.3317 33.9067 69.145 35.16 68.985 36.28ZM108.267 45.72C106.934 47.4267 105.68 48.6267 104.507 49.32C103.334 50.0133 102.214 50.44 101.147 50.6C100.08 50.7067 98.9602 50.76 97.7869 50.76C95.9735 50.76 94.5602 50.1733 93.5469 49C92.5869 47.7733 92.0535 46.36 91.9469 44.76C91.8935 43.6933 91.9469 42.4133 92.1069 40.92C92.3202 39.4267 92.8535 37.8 93.7069 36.04C94.5069 34.3867 95.3602 33.1867 96.2669 32.44C97.1735 31.64 98.0535 31.08 98.9069 30.76C99.7602 30.44 100.454 30.1733 100.987 29.96C101.414 29.8 101.867 29.72 102.347 29.72C103.414 29.72 104.267 29.9867 104.907 30.52C105.174 30.7333 105.334 31.0267 105.387 31.4C105.494 31.72 105.547 32.0667 105.547 32.44C105.547 32.6533 105.52 32.8933 105.467 33.16C105.467 33.3733 105.44 33.5867 105.387 33.8C105.28 34.4933 104.96 35.4 104.427 36.52C103.947 37.5867 103.494 38.6267 103.067 39.64C102.747 39.96 102.4 40.12 102.027 40.12C101.6 40.12 101.494 39.88 101.707 39.4C101.974 38.3333 102.32 37.4533 102.747 36.76C103.227 36.0133 103.467 35.3733 103.467 34.84C103.52 34.68 103.547 34.52 103.547 34.36C103.547 34.2 103.547 34.0667 103.547 33.96C103.547 33.2133 103.227 32.7067 102.587 32.44C102.267 32.3333 102.027 32.28 101.867 32.28C101.174 32.28 100.374 32.6 99.4669 33.24C98.5602 33.88 97.8135 34.76 97.2269 35.88C96.5335 37.1067 96.0269 38.4933 95.7069 40.04C95.4402 41.5867 95.3069 42.8933 95.3069 43.96C95.3069 45.24 95.7602 46.3067 96.6669 47.16C97.6269 47.96 98.7735 48.3067 100.107 48.2C101.6 48.04 103.04 47.64 104.427 47C105.867 46.36 107.094 45.3733 108.107 44.04C108.267 43.9333 108.427 43.88 108.587 43.88C108.747 43.88 108.827 43.9867 108.827 44.2C108.827 44.4133 108.747 44.7067 108.587 45.08C108.48 45.4 108.374 45.6133 108.267 45.72ZM133.993 44.76C134.153 44.6 134.366 44.52 134.633 44.52C135.006 44.52 135.193 44.7067 135.193 45.08C135.193 45.2933 135.059 45.6133 134.793 46.04C134.579 46.4667 134.099 46.9733 133.353 47.56C132.606 48.2 131.833 48.7867 131.033 49.32C130.286 49.8533 129.246 50.12 127.913 50.12C126.473 50.12 125.326 49.8533 124.473 49.32C123.673 48.7867 123.086 48.2 122.713 47.56C122.393 46.8667 122.179 46.3333 122.073 45.96C121.433 46.44 120.766 47.08 120.073 47.88C119.433 48.6267 118.499 49.32 117.273 49.96C116.046 50.5467 114.286 50.84 111.993 50.84C110.713 50.84 109.539 50.5467 108.473 49.96C107.459 49.32 106.953 47.96 106.953 45.88C106.953 45.2933 106.979 44.68 107.033 44.04C107.139 43.3467 107.299 42.6 107.513 41.8C108.153 39.2933 108.899 37.32 109.753 35.88C110.606 34.44 111.886 33.3733 113.593 32.68C114.659 32.2533 115.966 31.8533 117.513 31.48C119.059 31.1067 120.419 30.7867 121.593 30.52C121.966 30.4133 122.286 30.0667 122.553 29.48C122.873 28.84 123.219 28.2533 123.593 27.72C123.806 27.4533 124.046 27.24 124.313 27.08C124.579 26.8667 124.873 26.76 125.193 26.76C125.459 26.76 125.806 26.8933 126.233 27.16C126.606 27.4267 126.846 27.9333 126.953 28.68C127.113 29.4267 127.193 30.12 127.193 30.76C127.139 31.08 127.006 31.48 126.793 31.96C126.633 32.3867 126.499 32.8667 126.393 33.4C126.286 34.0933 126.019 35.08 125.593 36.36C125.166 37.64 124.953 38.7067 124.953 39.56C124.953 40.3067 124.899 41.24 124.793 42.36C124.686 43.4267 124.686 44.1733 124.793 44.6C125.379 45.88 126.206 46.7333 127.273 47.16C128.339 47.5333 129.273 47.64 130.073 47.48C130.659 47.3733 131.326 47.0267 132.073 46.44C132.819 45.8533 133.459 45.2933 133.993 44.76ZM121.033 35.64C120.926 35.2133 120.659 34.76 120.233 34.28C119.859 33.8 119.379 33.56 118.793 33.56C118.686 33.56 118.473 33.6133 118.153 33.72C117.246 34.04 116.286 34.6533 115.273 35.56C114.259 36.4133 113.379 37.5333 112.633 38.92C111.886 40.3067 111.459 41.9333 111.353 43.8C111.353 44.3333 111.513 45.0267 111.833 45.88C112.206 46.7333 112.686 47.4533 113.273 48.04C113.859 48.6267 114.446 48.7867 115.033 48.52C116.313 47.9867 117.379 47.24 118.233 46.28C119.139 45.2667 119.886 44.04 120.473 42.6C120.739 41.9067 120.926 41.1867 121.033 40.44C121.193 39.64 121.273 38.8933 121.273 38.2C121.273 37.56 121.246 37.0267 121.193 36.6C121.139 36.12 121.086 35.8 121.033 35.64ZM152.149 46.68C152.363 46.4667 152.656 46.36 153.029 46.36C153.403 46.36 153.589 46.52 153.589 46.84C153.589 47.2133 153.163 47.8 152.309 48.6C151.456 49.4 150.523 50.04 149.509 50.52C148.496 51 147.536 51.3467 146.629 51.56C146.203 51.6133 145.616 51.4533 144.869 51.08C144.176 50.76 143.749 50.4133 143.589 50.04C143.376 49.56 143.216 49.0267 143.109 48.44C143.003 47.8 142.949 47.1333 142.949 46.44C142.949 44.7867 143.136 43.08 143.509 41.32C143.883 39.56 144.229 38.04 144.549 36.76C143.909 36.9733 143.189 37.08 142.389 37.08C141.643 37.08 140.976 37.1333 140.389 37.24C140.016 37.7733 139.696 38.3867 139.429 39.08C139.163 39.72 138.789 40.44 138.309 41.24C137.456 42.6267 136.496 44.0133 135.429 45.4C134.416 46.7333 133.376 47.8267 132.309 48.68C131.243 49.5333 130.203 49.96 129.189 49.96C128.496 49.96 128.149 49.7733 128.149 49.4C128.149 49.0267 128.603 48.68 129.509 48.36C130.789 47.88 132.096 46.8667 133.429 45.32C134.763 43.7733 135.963 42.1733 137.029 40.52C137.563 39.72 137.909 39 138.069 38.36C138.229 37.6667 138.309 37.1333 138.309 36.76C138.309 36.76 138.069 36.4933 137.589 35.96C137.163 35.3733 136.949 34.8133 136.949 34.28C136.949 33.1067 137.323 32.04 138.069 31.08C138.869 30.12 139.696 29.7733 140.549 30.04C141.136 30.2 141.509 30.4667 141.669 30.84C141.883 31.2133 141.989 31.6133 141.989 32.04C141.989 32.52 141.909 33.0267 141.749 33.56C141.589 34.04 141.429 34.4667 141.269 34.84C141.429 35.0533 141.776 35.16 142.309 35.16C143.109 35.16 143.989 35 144.949 34.68C145.643 33.6667 146.309 32.8667 146.949 32.28C147.589 31.6933 148.176 31.4533 148.709 31.56C149.083 31.6133 149.429 31.7467 149.749 31.96C150.069 32.1733 150.229 32.5733 150.229 33.16C150.229 33.64 149.989 34.36 149.509 35.32C148.709 36.76 147.963 38.3333 147.269 40.04C146.576 41.6933 146.043 43.2133 145.669 44.6C145.296 45.9333 145.136 46.8667 145.189 47.4C145.296 48.0933 145.483 48.5467 145.749 48.76C146.069 48.9733 146.416 49.08 146.789 49.08C147.056 49.08 147.323 49.0533 147.589 49C147.909 48.8933 148.203 48.8133 148.469 48.76C149.269 48.4933 149.936 48.2 150.469 47.88C151.003 47.56 151.563 47.16 152.149 46.68ZM140.229 33.16C140.229 32.68 140.069 32.3333 139.749 32.12C139.696 32.0667 139.616 32.04 139.509 32.04C139.243 32.04 139.003 32.2267 138.789 32.6C138.576 32.92 138.469 33.24 138.469 33.56C138.469 33.8267 138.496 34.1467 138.549 34.52C138.656 34.84 138.843 34.92 139.109 34.76C139.376 34.6 139.616 34.3867 139.829 34.12C140.096 33.8533 140.229 33.5333 140.229 33.16ZM172.788 41.24C172.094 42.4133 171.214 43.6933 170.148 45.08C169.081 46.4133 167.961 47.56 166.788 48.52C165.668 49.48 164.601 49.96 163.588 49.96C161.934 49.96 160.628 49.88 159.668 49.72C158.761 49.5067 158.014 49.2133 157.428 48.84C156.414 48.1467 155.588 47.24 154.948 46.12C154.308 45 153.934 43.8533 153.828 42.68C153.774 42.36 153.748 42.04 153.748 41.72C153.748 41.4 153.748 41.1067 153.748 40.84C153.748 37.6933 154.361 34.92 155.588 32.52C156.814 30.12 158.548 28.68 160.788 28.2C161.481 28.0933 162.014 28.3867 162.388 29.08C162.761 29.72 162.948 30.6 162.948 31.72C162.948 33.4267 162.494 35.2667 161.588 37.24C161.214 38.04 160.814 38.8133 160.388 39.56C160.014 40.2533 159.694 40.8133 159.428 41.24C158.734 42.2533 158.201 42.9467 157.828 43.32C157.508 43.64 157.348 43.96 157.348 44.28C157.348 45.1333 157.881 45.96 158.948 46.76C160.014 47.56 161.668 47.96 163.908 47.96C164.761 47.96 165.641 47.5867 166.548 46.84C167.454 46.0933 168.334 45.16 169.188 44.04C170.094 42.92 170.894 41.8 171.588 40.68C171.908 40.1467 172.201 39.88 172.468 39.88C172.788 39.88 172.948 40.12 172.948 40.6C172.948 40.8133 172.894 41.0267 172.788 41.24ZM160.788 31.16C160.574 30.84 160.121 30.92 159.428 31.4C158.788 31.8267 158.201 32.84 157.668 34.44C157.294 35.6133 157.108 36.9733 157.108 38.52C157.108 38.9467 157.108 39.3733 157.108 39.8C157.161 40.2267 157.214 40.6533 157.268 41.08C158.174 39.5333 158.814 38.3867 159.188 37.64C159.614 36.84 159.934 36.0133 160.148 35.16C160.254 34.7333 160.414 34.2 160.628 33.56C160.894 32.92 161.028 32.36 161.028 31.88C161.028 31.56 160.948 31.32 160.788 31.16Z" fill="white"/>
</svg>
