<svg width="124" height="102" viewBox="0 0 124 102" fill="none" xmlns="http://www.w3.org/2000/svg">
<path d="M2 2H15.6523C17.8311 2 19.7535 3.42651 20.3871 5.51343L41.7596 75.9005C42.3932 77.9874 44.3156 79.4139 46.4942 79.4139H94.6487C96.9129 79.4139 98.8889 77.8753 99.4455 75.6779L108.068 41.6561C108.624 39.4586 110.6 37.9201 112.865 37.9201H121.386" stroke="white" stroke-width="3.75648" stroke-linecap="round"/>
<path d="M72.593 21.7428C71.8683 21.0174 70.6934 21.0174 69.9687 21.7428L58.1586 33.5667C57.4341 34.2923 57.4341 35.4686 58.1586 36.1942C58.8834 36.9197 60.0585 36.9197 60.7832 36.1942L71.2808 25.6842L81.7785 36.1942C82.5032 36.9197 83.6782 36.9197 84.4029 36.1942C85.1276 35.4686 85.1276 34.2923 84.4029 33.5667L72.593 21.7428ZM73.1366 57.7381V23.0566H69.4251V57.7381H73.1366Z" fill="white"/>
<path d="M58.2909 99.8512C61.3656 99.8512 63.8581 97.3557 63.8581 94.2774C63.8581 91.1991 61.3656 88.7036 58.2909 88.7036C55.2162 88.7036 52.7236 91.1991 52.7236 94.2774C52.7236 97.3557 55.2162 99.8512 58.2909 99.8512Z" stroke="white" stroke-width="3.00518"/>
<path d="M85.5086 99.8512C88.5833 99.8512 91.0759 97.3557 91.0759 94.2774C91.0759 91.1991 88.5833 88.7036 85.5086 88.7036C82.4339 88.7036 79.9414 91.1991 79.9414 94.2774C79.9414 97.3557 82.4339 99.8512 85.5086 99.8512Z" stroke="white" stroke-width="3.00518"/>
</svg>
